<svg width="223" height="44" viewBox="0 0 223 44" fill="none" xmlns="http://www.w3.org/2000/svg">
<g filter="url(#filter0_d)">
<path d="M17.5669 30V18.1675L13.2871 26.7831H10.7695L6.48969 18.1675V30H1.90215V10.1393H6.88131L12.0283 20.5172L17.2033 10.1393H22.1545V30H17.5669ZM32.3803 30.2797C30.7206 30.2797 29.3033 29.9347 28.1284 29.2447C26.9536 28.5547 26.0491 27.641 25.4151 26.5034C24.7997 25.3658 24.492 24.135 24.492 22.811C24.492 21.3937 24.7997 20.0976 25.4151 18.9228C26.0305 17.7479 26.9256 16.8062 28.1004 16.0975C29.2753 15.3889 30.7019 15.0345 32.3803 15.0345C34.04 15.0345 35.4573 15.3889 36.6322 16.0975C37.807 16.8062 38.6928 17.7386 39.2896 18.8948C39.905 20.051 40.2127 21.2911 40.2127 22.6152C40.2127 23.156 40.1754 23.6315 40.1008 24.0418H29.2473C29.3219 25.0302 29.6762 25.7854 30.3103 26.3076C30.963 26.8111 31.6996 27.0629 32.5201 27.0629C33.1728 27.0629 33.7976 26.9043 34.3943 26.5873C34.9911 26.2703 35.4013 25.8414 35.6251 25.3006L39.4294 26.3635C38.8513 27.5197 37.9469 28.4615 36.7161 29.1888C35.5039 29.9161 34.0587 30.2797 32.3803 30.2797ZM29.1354 21.3005H35.5132C35.42 20.368 35.075 19.6314 34.4782 19.0906C33.9001 18.5311 33.1822 18.2514 32.3243 18.2514C31.4665 18.2514 30.7392 18.5311 30.1425 19.0906C29.5644 19.6501 29.2287 20.3867 29.1354 21.3005ZM41.402 22.6431C41.402 21.2259 41.6724 19.9484 42.2132 18.8109C42.7726 17.6547 43.5372 16.7409 44.5069 16.0695C45.4953 15.3795 46.6235 15.0345 47.8917 15.0345C48.9173 15.0345 49.8404 15.2863 50.661 15.7898C51.5001 16.2747 52.1435 16.918 52.5911 17.7199V9.57984H57.0667V25.0208C57.0667 25.4684 57.132 25.7854 57.2625 25.9719C57.4117 26.1584 57.6635 26.261 58.0178 26.2796V30C57.2346 30.1492 56.6005 30.2238 56.1157 30.2238C55.3511 30.2238 54.7263 30.0559 54.2415 29.7203C53.7566 29.3846 53.4676 28.9184 53.3743 28.3216L53.2904 27.5664C52.7682 28.4801 52.0596 29.1608 51.1645 29.6084C50.2693 30.0559 49.3276 30.2797 48.3392 30.2797C46.9965 30.2797 45.803 29.9534 44.7587 29.3007C43.7144 28.6293 42.8938 27.7156 42.2971 26.5593C41.7003 25.4031 41.402 24.0977 41.402 22.6431ZM52.6191 24.4614V21.3844C52.3393 20.6384 51.8824 20.0324 51.2484 19.5661C50.633 19.0813 49.9896 18.8388 49.3183 18.8388C48.6842 18.8388 48.1154 19.016 47.6119 19.3703C47.1084 19.7247 46.7168 20.2002 46.4371 20.7969C46.1573 21.3937 46.0175 22.0371 46.0175 22.7271C46.0175 23.8087 46.3438 24.7131 46.9965 25.4404C47.6679 26.1491 48.5164 26.5034 49.542 26.5034C50.1574 26.5034 50.7449 26.3262 51.3043 25.9719C51.8824 25.5989 52.3207 25.0954 52.6191 24.4614ZM60.5437 13.6359V9.57984H65.0193V13.6359H60.5437ZM60.5437 30V15.3143H65.0193V30H60.5437ZM76.7574 30.1399C75.452 30.1399 74.2212 29.8974 73.065 29.4126C71.9274 28.9091 70.9111 28.2097 70.016 27.3146C69.1395 26.4008 68.4495 25.3285 67.946 24.0977C67.4611 22.8483 67.2187 21.459 67.2187 19.9298C67.2187 18.5498 67.4611 17.263 67.946 16.0695C68.4495 14.876 69.1488 13.8224 70.0439 12.9086C70.9577 11.9948 72.0114 11.2862 73.2049 10.7827C74.417 10.2605 75.7224 9.99944 77.1211 9.99944C78.9486 9.99944 80.5524 10.3911 81.9324 11.1743C83.331 11.9575 84.3753 13.0112 85.0653 14.3352L81.6527 16.9087C81.2051 16.0322 80.5524 15.3422 79.6946 14.8387C78.8367 14.3352 77.9229 14.0835 76.9532 14.0835C75.9462 14.0835 75.0604 14.3539 74.2958 14.8947C73.5312 15.4168 72.9345 16.1348 72.5055 17.0486C72.0766 17.9624 71.8622 18.9787 71.8622 20.0976C71.8622 21.2352 72.0859 22.2609 72.5335 23.1746C72.9811 24.0698 73.5965 24.7784 74.3797 25.3006C75.1816 25.8041 76.1047 26.0558 77.149 26.0558C78.9393 26.0558 80.5524 25.2353 81.9883 23.5942V22.9509H78.1281V19.6221H85.7926V30H81.9883V28.0419C80.4778 29.4405 78.7342 30.1399 76.7574 30.1399ZM88.322 24.7131V15.3143H92.7976V23.7341C92.7976 25.5803 93.4783 26.5034 94.8397 26.5034C95.4364 26.5034 96.0145 26.3449 96.574 26.0279C97.1334 25.6922 97.6276 25.1421 98.0565 24.3775V15.3143H102.532V25.0208C102.532 25.4684 102.597 25.7854 102.728 25.9719C102.877 26.1584 103.129 26.261 103.483 26.2796V30C103.054 30.0746 102.691 30.1305 102.392 30.1678C102.094 30.2051 101.824 30.2238 101.581 30.2238C99.9773 30.2238 99.0636 29.5991 98.8398 28.3496L98.7558 27.4545C98.0845 28.4242 97.2453 29.1422 96.2383 29.6084C95.2499 30.0559 94.1403 30.2797 92.9095 30.2797C91.4176 30.2797 90.2801 29.8042 89.4968 28.8531C88.7136 27.902 88.322 26.522 88.322 24.7131ZM105.076 25.6083C105.076 24.6385 105.347 23.79 105.888 23.0627C106.428 22.3354 107.174 21.7667 108.125 21.3564C109.077 20.9275 110.167 20.713 111.398 20.713C111.995 20.713 112.582 20.769 113.161 20.8809C113.739 20.9741 114.242 21.114 114.671 21.3005V20.6571C114.671 18.9974 113.692 18.1675 111.734 18.1675C110.913 18.1675 110.139 18.3074 109.412 18.5871C108.704 18.8668 107.948 19.2678 107.146 19.7899L105.804 16.9367C107.743 15.6686 109.869 15.0345 112.181 15.0345C114.382 15.0345 116.088 15.566 117.301 16.629C118.531 17.6733 119.147 19.1932 119.147 21.1886V25.0208C119.147 25.4684 119.212 25.7854 119.343 25.9719C119.492 26.1584 119.743 26.261 120.098 26.2796V30C119.706 30.0746 119.352 30.1305 119.035 30.1678C118.718 30.2051 118.438 30.2238 118.196 30.2238C117.356 30.2238 116.713 30.0559 116.266 29.7203C115.837 29.3846 115.566 28.9277 115.454 28.3496L115.37 27.7062C114.718 28.5454 113.934 29.1888 113.021 29.6364C112.107 30.0653 111.165 30.2797 110.195 30.2797C109.226 30.2797 108.349 30.0746 107.566 29.6643C106.801 29.2541 106.195 28.7039 105.748 28.0139C105.3 27.3053 105.076 26.5034 105.076 25.6083ZM113.972 26.1677C114.438 25.7948 114.671 25.4125 114.671 25.0208V23.7061C114.279 23.5569 113.851 23.445 113.384 23.3704C112.937 23.2772 112.526 23.2306 112.154 23.2306C111.314 23.2306 110.624 23.4171 110.084 23.79C109.561 24.163 109.3 24.6385 109.3 25.2166C109.3 25.7202 109.496 26.1584 109.888 26.5314C110.298 26.8857 110.839 27.0629 111.51 27.0629C111.958 27.0629 112.405 26.9789 112.853 26.8111C113.3 26.6433 113.673 26.4288 113.972 26.1677ZM122.25 24.7131V15.3143H126.726V23.7341C126.726 25.5803 127.406 26.5034 128.768 26.5034C129.364 26.5034 129.942 26.3449 130.502 26.0279C131.061 25.6922 131.556 25.1421 131.984 24.3775V15.3143H136.46V25.0208C136.46 25.4684 136.525 25.7854 136.656 25.9719C136.805 26.1584 137.057 26.261 137.411 26.2796V30C136.982 30.0746 136.619 30.1305 136.32 30.1678C136.022 30.2051 135.751 30.2238 135.509 30.2238C133.905 30.2238 132.992 29.5991 132.768 28.3496L132.684 27.4545C132.012 28.4242 131.173 29.1422 130.166 29.6084C129.178 30.0559 128.068 30.2797 126.837 30.2797C125.346 30.2797 124.208 29.8042 123.425 28.8531C122.642 27.902 122.25 26.522 122.25 24.7131Z" fill="#B392DC"/>
</g>
<g filter="url(#filter1_d)">
<path d="M217.75 11.6867C217.902 5.3982 212.767 0.069059 206.299 0.000693227C201.969 -0.0451343 198.181 2.22183 196.154 5.60856C194.127 2.22183 190.339 -0.0455099 186.009 0.000693227C179.541 0.069059 174.405 5.3982 174.558 11.6867C174.899 25.7389 192.181 37.9613 195.578 40.2298C195.925 40.4619 196.382 40.4619 196.73 40.2298C200.126 37.9613 217.408 25.7389 217.75 11.6867Z" fill="#B392DC"/>
<g filter="url(#filter2_d)">
<path d="M202.721 17.5923C201.273 17.0445 200.839 15.573 201.063 14.1256C201.172 13.4197 201.436 12.7194 201.816 12.1346C203.27 9.89676 205.819 9.27157 207.986 10.0913C208.923 10.4458 209.787 11.0707 210.461 11.9511C211.036 12.7008 211.471 13.6329 211.566 14.6408C211.663 15.6492 211.383 16.7336 210.738 17.4005C210.213 17.9416 209.44 18.1467 208.791 17.9012C208.639 17.8438 208.495 17.761 208.36 17.6524C208.067 17.4151 207.784 17.0803 207.608 16.7548C207.419 16.4057 207.229 16.0436 206.833 15.8796C206.825 15.8765 206.815 15.8728 206.805 15.8691C206.644 15.808 206.466 15.7875 206.293 15.7954C205.706 15.8166 205.23 16.0986 204.964 16.5921C204.743 17.0032 204.511 17.4675 204.047 17.6603C203.73 17.7915 203.382 17.7799 203.055 17.6966C202.939 17.6667 202.827 17.6324 202.721 17.5923Z" fill="white"/>
<path d="M202.929 9.01029C202.918 9.00608 202.908 9.00239 202.898 8.9987C201.354 8.37859 201.673 6.31206 203.127 5.79652C203.466 5.67697 203.837 5.70344 204.173 5.8304C204.584 5.9858 204.944 6.29205 205.133 6.66334C205.449 7.27909 205.329 8.08064 204.847 8.5846C204.372 9.08065 203.576 9.25525 202.929 9.01029Z" fill="white"/>
<path d="M207.542 9.03788C207.532 9.0342 207.521 9.02998 207.511 9.02629C205.969 8.40535 206.286 6.33967 207.739 5.82414C208.08 5.70512 208.45 5.73106 208.786 5.85801C209.196 6.01342 209.556 6.31966 209.747 6.69148C210.062 7.3067 209.943 8.10876 209.461 8.61272C208.985 9.10824 208.191 9.28337 207.542 9.03788Z" fill="white"/>
<path d="M211.334 11.7003C211.156 11.6329 210.99 11.5343 210.848 11.4042C209.955 10.586 210.326 9.01029 211.542 8.75587C211.906 8.67982 212.259 8.71646 212.568 8.83341C213.511 9.19004 214.05 10.2928 213.277 11.2358C212.831 11.7815 211.994 11.95 211.334 11.7003Z" fill="white"/>
<path d="M199.226 11.6281C199.046 11.5601 198.88 11.4629 198.738 11.3327C197.846 10.5132 198.217 8.93748 199.433 8.68307C199.797 8.60703 200.15 8.64366 200.459 8.76061C201.401 9.11725 201.941 10.2214 201.169 11.1635C200.721 11.7101 199.885 11.8772 199.226 11.6281Z" fill="white"/>
</g>
<g filter="url(#filter3_d)">
<path d="M196.147 35.3533C195.52 35.3533 194.98 34.9197 194.864 34.3201L191.676 17.8718L188.283 25.7019C188.086 26.158 187.633 26.4604 187.124 26.4773C186.614 26.4942 186.142 26.2217 185.914 25.7798L185.007 24.0292H172.306C171.585 24.0292 171 23.4614 171 22.7613C171 22.0608 171.585 21.4934 172.306 21.4934H185.811C186.302 21.4934 186.751 21.7606 186.974 22.1849L190.952 13.0038C191.176 12.4877 191.721 12.1751 192.294 12.2347C192.867 12.2939 193.332 12.7107 193.439 13.2609L196.068 26.824L197.155 20.4777C197.26 19.8661 197.804 19.4178 198.443 19.4178H202.704C203.145 19.4178 203.557 19.6345 203.798 19.9935L205.798 22.9757L206.661 21.9563C206.909 21.6632 207.279 21.4934 207.67 21.4934H220.276C220.997 21.4934 221.581 22.0612 221.581 22.7613C221.581 23.4614 220.997 24.0292 220.276 24.0292H208.287L206.685 25.9215C206.421 26.2333 206.02 26.4046 205.605 26.3825C205.189 26.3604 204.81 26.1471 204.583 25.8087L201.997 21.9536H199.549L197.435 34.2935C197.331 34.8999 196.794 35.3466 196.161 35.353C196.156 35.353 196.151 35.3533 196.147 35.3533Z" fill="#384D61"/>
</g>
</g>
<defs>
<filter id="filter0_d" x="0.902161" y="9.57984" width="137.509" height="22.6999" filterUnits="userSpaceOnUse" color-interpolation-filters="sRGB">
<feFlood flood-opacity="0" result="BackgroundImageFix"/>
<feColorMatrix in="SourceAlpha" type="matrix" values="0 0 0 0 0 0 0 0 0 0 0 0 0 0 0 0 0 0 127 0"/>
<feOffset dy="1"/>
<feGaussianBlur stdDeviation="0.5"/>
<feColorMatrix type="matrix" values="0 0 0 0 0 0 0 0 0 0 0 0 0 0 0 0 0 0 0.25 0"/>
<feBlend mode="normal" in2="BackgroundImageFix" result="effect1_dropShadow"/>
<feBlend mode="normal" in="SourceGraphic" in2="effect1_dropShadow" result="shape"/>
</filter>
<filter id="filter1_d" x="169.685" y="0" width="53.2111" height="43.6917" filterUnits="userSpaceOnUse" color-interpolation-filters="sRGB">
<feFlood flood-opacity="0" result="BackgroundImageFix"/>
<feColorMatrix in="SourceAlpha" type="matrix" values="0 0 0 0 0 0 0 0 0 0 0 0 0 0 0 0 0 0 127 0"/>
<feOffset dy="1.9727"/>
<feGaussianBlur stdDeviation="0.657568"/>
<feColorMatrix type="matrix" values="0 0 0 0 0.403922 0 0 0 0 0.415686 0 0 0 0 0.435294 0 0 0 0.52 0"/>
<feBlend mode="normal" in2="BackgroundImageFix" result="effect1_dropShadow"/>
<feBlend mode="normal" in="SourceGraphic" in2="effect1_dropShadow" result="shape"/>
</filter>
<filter id="filter2_d" x="197.588" y="5.71964" width="16.7161" height="13.5995" filterUnits="userSpaceOnUse" color-interpolation-filters="sRGB">
<feFlood flood-opacity="0" result="BackgroundImageFix"/>
<feColorMatrix in="SourceAlpha" type="matrix" values="0 0 0 0 0 0 0 0 0 0 0 0 0 0 0 0 0 0 127 0"/>
<feOffset dy="0.657568"/>
<feGaussianBlur stdDeviation="0.328784"/>
<feColorMatrix type="matrix" values="0 0 0 0 0 0 0 0 0 0 0 0 0 0 0 0 0 0 0.25 0"/>
<feBlend mode="normal" in2="BackgroundImageFix" result="effect1_dropShadow"/>
<feBlend mode="normal" in="SourceGraphic" in2="effect1_dropShadow" result="shape"/>
</filter>
<filter id="filter3_d" x="170.342" y="12.2275" width="51.8959" height="24.441" filterUnits="userSpaceOnUse" color-interpolation-filters="sRGB">
<feFlood flood-opacity="0" result="BackgroundImageFix"/>
<feColorMatrix in="SourceAlpha" type="matrix" values="0 0 0 0 0 0 0 0 0 0 0 0 0 0 0 0 0 0 127 0"/>
<feOffset dy="0.657568"/>
<feGaussianBlur stdDeviation="0.328784"/>
<feColorMatrix type="matrix" values="0 0 0 0 0 0 0 0 0 0 0 0 0 0 0 0 0 0 0.25 0"/>
<feBlend mode="normal" in2="BackgroundImageFix" result="effect1_dropShadow"/>
<feBlend mode="normal" in="SourceGraphic" in2="effect1_dropShadow" result="shape"/>
</filter>
</defs>
</svg>
