<svg width="27" height="22" viewBox="0 0 27 22" fill="none" xmlns="http://www.w3.org/2000/svg">
<path d="M4.98601 19.415C4.94747 19.1245 5.04577 18.8325 5.24443 18.6252L5.68922 18.1611L7.25523 16.527L7.70002 16.0629C7.8987 15.8555 8.17853 15.753 8.45686 15.7932C8.67018 15.8241 8.89484 15.7485 9.05214 15.5662C9.28485 15.2965 9.27865 14.8717 9.03873 14.6091C8.90235 14.4598 8.71929 14.3873 8.53723 14.3909C8.46013 14.3924 8.3992 14.3288 8.40067 14.2484C8.40474 14.0256 8.30853 13.8014 8.11089 13.656C7.87782 13.4845 7.55694 13.4889 7.32758 13.6658C7.1191 13.8265 7.02846 14.077 7.05504 14.3163C7.0858 14.5928 6.9807 14.8672 6.79204 15.0641L6.32266 15.5539L4.75665 17.188L4.28726 17.6778C4.09863 17.8746 3.83566 17.9843 3.57066 17.9522C3.34135 17.9245 3.10122 18.019 2.94719 18.2366C2.77775 18.4759 2.77356 18.8107 2.93785 19.0539C3.07715 19.2602 3.29209 19.3605 3.50556 19.3563C3.58269 19.3548 3.64361 19.4183 3.64213 19.4988C3.63867 19.6888 3.70812 19.8798 3.85122 20.0221C4.10294 20.2725 4.51003 20.2789 4.76848 20.0361C4.94313 19.872 5.01557 19.6375 4.98601 19.415Z" fill="#684D3C"/>
<path d="M9.3322 16.9965C9.26331 16.7567 9.05981 16.5936 8.82967 16.5936H2.93232C2.70218 16.5936 2.49868 16.7567 2.42979 16.9965L1.42505 20.4926H10.3369L9.3322 16.9965Z" fill="#684D3C"/>
<path d="M10.7235 20.2141H1.03833C0.944248 20.2141 0.867981 20.2772 0.867981 20.355V20.9087C0.867981 20.9865 0.944248 21.0496 1.03833 21.0496H10.7235C10.8176 21.0496 10.8939 20.9865 10.8939 20.9087V20.355C10.8939 20.2772 10.8176 20.2141 10.7235 20.2141Z" fill="#684D3C"/>
<path d="M6.64606 19.3383C6.67075 19.2305 6.67655 19.1143 6.65936 18.9937C6.60454 18.6091 6.31031 18.3004 5.95181 18.2496C5.46091 18.1801 5.04498 18.5831 5.04498 19.099C5.04498 19.1601 5.05087 19.2199 5.06204 19.2776C5.107 19.5099 5.29967 19.6777 5.51952 19.6821L6.19568 19.6957C6.40514 19.6999 6.5962 19.5561 6.64606 19.3383Z" fill="#E0E0E0"/>
<path d="M6.35563 17.1658C6.16382 17.148 5.99545 17.3386 5.97956 17.5915C5.96368 17.8444 6.10336 18.1104 6.29517 18.1281C6.48698 18.1459 6.65827 17.9087 6.67415 17.6558C6.69004 17.4029 6.54743 17.1835 6.35563 17.1658Z" fill="#E0E0E0"/>
<path d="M5.43019 17.147C5.62202 17.1375 5.78995 17.3352 5.80526 17.5888C5.82057 17.8424 5.68028 18.1024 5.48845 18.1119C5.29661 18.1215 5.12587 17.877 5.11056 17.6235C5.09525 17.3699 5.23835 17.1566 5.43019 17.147Z" fill="#E0E0E0"/>
<path d="M7.12662 17.8808C6.9824 17.7901 6.77866 17.8795 6.67155 18.0806C6.56444 18.2817 6.57482 18.5554 6.71904 18.6461C6.86327 18.7369 7.08672 18.6105 7.19383 18.4093C7.30094 18.2082 7.27085 17.9716 7.12662 17.8808Z" fill="#E0E0E0"/>
<path d="M4.63582 17.8325C4.78005 17.7475 4.98378 17.8451 5.09089 18.0505C5.19801 18.2559 5.18762 18.5292 5.0434 18.6142C4.89917 18.6992 4.67572 18.5638 4.56861 18.3584C4.4615 18.1529 4.4916 17.9175 4.63582 17.8325Z" fill="#E0E0E0"/>
<path d="M12.2279 6.44912C13.8102 6.44912 15.0928 5.16647 15.0928 3.58423C15.0928 2.00199 13.8102 0.71933 12.2279 0.71933C10.6457 0.71933 9.36304 2.00199 9.36304 3.58423C9.36304 5.16647 10.6457 6.44912 12.2279 6.44912Z" fill="#684D3C"/>
<path d="M14.6245 13.7649L16.427 13.0319L15.2729 11.1529C15.1114 11.4896 14.9156 11.7999 14.6766 12.0767C13.9341 12.9389 12.8683 13.4388 11.5931 13.5229C11.568 13.524 11.543 13.5252 11.5182 13.5252C10.9372 13.5252 10.4482 13.0743 10.4098 12.4866C10.3691 11.8737 10.8334 11.3437 11.4463 11.303C11.9114 11.2727 12.5506 11.1242 12.9914 10.6252C14.5385 8.87343 12.6982 7.42134 14.3073 5.78239C14.3073 5.78239 14.5173 5.54762 14.7947 5.38609C15.0598 5.23124 15.3893 5.11316 15.3893 5.11316L15.3963 5.10954C16.3417 4.80682 17.6273 4.93882 18.2444 5.94225L21.5541 11.3317C21.7075 11.5821 21.8861 11.9976 21.8627 12.4983L21.5547 17.4949L24.4563 17.0988C25.2158 16.9966 25.9165 17.5274 26.0201 18.2875C26.124 19.0475 25.5917 19.7473 24.8317 19.8507L20.2518 20.4756C20.1889 20.4842 20.1265 20.4887 20.0641 20.4887C19.716 20.4887 19.3776 20.3575 19.1189 20.1177C18.814 19.8342 18.6522 19.4296 18.6778 19.0146L18.9223 15.0508L16.5801 15.9681L16.7419 19.5234C16.777 20.2898 16.1841 20.9387 15.418 20.9736C15.3965 20.9747 15.3754 20.9752 15.3542 20.9752C14.6162 20.9752 14.0018 20.3943 13.9676 19.6493L13.7604 15.1148C13.7333 14.5275 14.0795 13.9863 14.6245 13.7649Z" fill="#684D3C"/>
</svg>
