<svg width="101" height="180" viewBox="0 0 101 180" fill="none" xmlns="http://www.w3.org/2000/svg">
<g filter="url(#filter0_d)">
<path d="M50 0L50 132" stroke="#384D61" stroke-width="2"/>
</g>
<g filter="url(#filter1_d)">
<path fill-rule="evenodd" clip-rule="evenodd" d="M47.5639 138.209C47.5639 138.209 47.5638 138.209 47.5638 138.209L37.8741 134.136L35.0136 133.156C33.9272 132.783 32.8109 132.505 31.6768 132.325L31.1048 132.233C29.5955 131.993 28.0636 131.926 26.5391 132.035L24.0941 132.208L19.5295 133.1L17.4971 133.341C16.6645 133.439 15.8237 133.446 14.9897 133.361L14.9388 133.356C13.2524 133.185 11.6266 132.634 10.1832 131.745L9.7754 131.494C9.08924 131.071 8.47029 130.549 7.9392 129.942L7.65895 129.623C6.87351 128.726 6.34803 127.633 6.13931 126.459C5.87759 124.988 6.12787 123.472 6.84845 122.162L7.28442 121.37C7.62495 120.752 8.03638 120.175 8.51038 119.651L9.11151 118.987C9.84245 118.18 10.7062 117.504 11.6654 116.989L11.931 116.846C12.4444 116.57 12.9899 116.358 13.555 116.215C14.0193 116.098 14.2215 115.552 13.9453 115.161L13.0909 113.952C12.9745 113.787 12.8883 113.603 12.8366 113.408L12.577 112.43C12.3315 111.505 12.2695 110.541 12.3947 109.592L12.4062 109.505C12.5338 108.538 12.8423 107.603 13.3156 106.75L13.5749 106.283C14.1656 105.219 15.0157 104.321 16.0463 103.673C17.3542 102.851 18.8924 102.47 20.433 102.585C22.2341 102.721 23.9206 103.526 25.1582 104.841L25.8693 105.597C26.4549 106.22 26.9575 106.915 27.3645 107.667L28.9288 110.556L30.3099 112.469C31.1154 113.585 32.0695 114.586 33.1456 115.444C34.1959 116.281 35.3531 116.974 36.5866 117.506L39.7985 118.891L42.7215 120.136C42.7215 120.136 42.7215 120.136 42.7215 120.136C42.7216 120.136 42.7216 120.136 42.7216 120.136L65.5837 129.88L67.9614 130.721C69.8379 131.384 71.8172 131.709 73.8072 131.68C74.8918 131.665 75.9723 131.544 77.0336 131.32L80.67 130.553L84.1105 129.84C84.8996 129.677 85.7076 129.623 86.5113 129.681L86.839 129.705C88.3736 129.816 89.8393 130.386 91.0455 131.341C92.0259 132.118 92.8015 133.122 93.3046 134.267L93.399 134.482C93.7663 135.318 93.9984 136.207 94.0864 137.116L94.1947 138.235C94.271 139.024 94.2275 139.819 94.0657 140.595C93.8169 141.787 93.2943 142.905 92.539 143.86L92.4249 144.004C91.7871 144.81 91.0102 145.496 90.1309 146.03L88.7802 146.849C88.6857 146.906 88.5849 146.952 88.4798 146.987L87.4491 147.325C87.1158 147.434 86.9648 147.82 87.1353 148.127L87.3147 148.449C87.8473 149.405 88.2076 150.448 88.379 151.529L88.418 151.775C88.5432 152.565 88.5453 153.369 88.4243 154.159L88.4085 154.262C88.2178 155.508 87.7099 156.683 86.9335 157.675C86.5365 158.182 86.0745 158.635 85.5593 159.022L85.2047 159.288C84.5304 159.794 83.7689 160.171 82.958 160.402C82.2147 160.613 81.4411 160.698 80.6696 160.652L80.4421 160.639C79.5557 160.586 78.685 160.381 77.8684 160.032C76.8611 159.601 75.9571 158.96 75.2168 158.153L74.7989 157.697C74.1606 157.001 73.6185 156.222 73.187 155.382L71.8857 152.848L70.9353 151.406C70.2538 150.372 69.4531 149.422 68.5496 148.575C67.9274 147.992 67.259 147.46 66.5509 146.984L64.5288 145.627L61.0271 143.871L47.564 138.209C47.5639 138.209 47.5639 138.209 47.5639 138.209Z" fill="#A6D2FB"/>
</g>
<defs>
<filter id="filter0_d" x="48" y="0" width="4.00001" height="134" filterUnits="userSpaceOnUse" color-interpolation-filters="sRGB">
<feFlood flood-opacity="0" result="BackgroundImageFix"/>
<feColorMatrix in="SourceAlpha" type="matrix" values="0 0 0 0 0 0 0 0 0 0 0 0 0 0 0 0 0 0 127 0"/>
<feOffset dy="1"/>
<feGaussianBlur stdDeviation="0.5"/>
<feColorMatrix type="matrix" values="0 0 0 0 0 0 0 0 0 0 0 0 0 0 0 0 0 0 0.25 0"/>
<feBlend mode="normal" in2="BackgroundImageFix" result="effect1_dropShadow"/>
<feBlend mode="normal" in="SourceGraphic" in2="effect1_dropShadow" result="shape"/>
</filter>
<filter id="filter1_d" x="0" y="86.0625" width="100.276" height="93.2775" filterUnits="userSpaceOnUse" color-interpolation-filters="sRGB">
<feFlood flood-opacity="0" result="BackgroundImageFix"/>
<feColorMatrix in="SourceAlpha" type="matrix" values="0 0 0 0 0 0 0 0 0 0 0 0 0 0 0 0 0 0 127 0"/>
<feOffset dy="1"/>
<feGaussianBlur stdDeviation="0.5"/>
<feColorMatrix type="matrix" values="0 0 0 0 0 0 0 0 0 0 0 0 0 0 0 0 0 0 0.25 0"/>
<feBlend mode="normal" in2="BackgroundImageFix" result="effect1_dropShadow"/>
<feBlend mode="normal" in="SourceGraphic" in2="effect1_dropShadow" result="shape"/>
</filter>
</defs>
</svg>
