<svg width="83" height="65" viewBox="0 0 83 65" fill="none" xmlns="http://www.w3.org/2000/svg">
<g filter="url(#filter0_d)">
<path d="M56.2673 4.16423C59.0763 3.61602 62.0013 4.29155 64.6361 5.39605C66.3285 6.10454 67.9765 7.01839 69.1916 8.37885C71.87 11.3701 71.9019 15.9288 70.6503 19.7225C68.2586 26.9729 61.5055 32.6447 53.8616 33.8195C57.0865 33.076 60.4655 32.9897 63.7259 33.5643C66.9993 34.1436 70.5129 35.7554 71.5353 38.8744C72.2972 41.1928 71.4016 43.8343 69.698 45.6057C67.9944 47.3771 65.6014 48.3718 63.178 48.8734C59.0248 49.73 54.5232 49.2143 50.8654 47.0938C44.2902 43.2815 39.0259 33.3905 40.5747 25.8378C42.1292 18.2581 47.7737 5.82485 56.2673 4.16423Z" fill="#FCFC5B"/>
<path d="M15.6346 19.2322C13.0348 20.4139 11.0708 22.6539 9.59625 25.0768C8.65057 26.6305 7.86088 28.3236 7.68783 30.1254C7.30465 34.1001 9.99401 37.806 13.2696 40.152C19.527 44.6336 28.3701 45.3103 35.2577 41.8336C32.2036 43.1025 29.4182 44.9864 27.1228 47.3433C24.8184 49.7079 22.934 53.0463 23.9658 56.1614C24.7342 58.4785 27.0334 60.0972 29.4663 60.5455C31.9007 60.9907 34.4299 60.411 36.6892 59.4118C40.5625 57.7006 43.8951 54.6749 45.5919 50.8377C48.6401 43.9461 47.0054 32.8946 41.2516 27.6799C35.4754 22.4462 23.4962 15.6551 15.6346 19.2322Z" fill="#FCFC5B"/>
<path d="M36.4392 23.3685C34.399 24.7653 35.1351 27.8614 36.0907 30.1187C37.9187 34.4477 39.7471 38.7732 41.5763 43.0989C42.6828 45.7186 43.8317 48.4006 45.8224 50.449C46.5473 51.1986 47.5024 51.8856 48.5456 51.7702C49.6695 51.6475 50.497 50.5845 50.7107 49.4899C50.9241 48.3951 50.6615 47.2711 50.4007 46.1839C49.6266 42.9727 45.2444 17.3413 36.4392 23.3685Z" fill="#BF946D"/>
</g>
<defs>
<filter id="filter0_d" x="6.65137" y="3.96997" width="66.158" height="58.7274" filterUnits="userSpaceOnUse" color-interpolation-filters="sRGB">
<feFlood flood-opacity="0" result="BackgroundImageFix"/>
<feColorMatrix in="SourceAlpha" type="matrix" values="0 0 0 0 0 0 0 0 0 0 0 0 0 0 0 0 0 0 127 0"/>
<feOffset dy="1"/>
<feGaussianBlur stdDeviation="0.5"/>
<feColorMatrix type="matrix" values="0 0 0 0 0 0 0 0 0 0 0 0 0 0 0 0 0 0 0.25 0"/>
<feBlend mode="normal" in2="BackgroundImageFix" result="effect1_dropShadow"/>
<feBlend mode="normal" in="SourceGraphic" in2="effect1_dropShadow" result="shape"/>
</filter>
</defs>
</svg>
