<svg width="56" height="51" viewBox="0 0 56 51" fill="none" xmlns="http://www.w3.org/2000/svg">
<g filter="url(#filter0_d)">
<path d="M7.25099 14.0901C6.65983 11.2092 6.6775 7.82502 8.84255 5.80571C9.66251 5.04094 10.7232 4.55469 11.8223 4.2998C16.4296 3.22891 21.2203 6.27427 23.5464 10.3358C25.8736 14.3942 26.2622 19.2294 26.4027 23.8887C27.9627 21.6488 29.7026 19.2667 32.3163 18.3946C35.4935 17.333 39.2357 19.0522 40.8463 21.9506C42.4565 24.8489 42.0692 28.59 40.283 31.387C38.4968 34.1841 35.4783 36.0822 32.2556 36.997C30.4974 37.4978 28.6401 37.7273 26.8312 37.4594C21.6801 36.6889 17.3881 31.8099 14.1264 28.0764C10.7456 24.2095 8.27454 19.066 7.25099 14.0901Z" fill="#D6D350"/>
<path d="M24.6803 4.74461C27.0022 3.61194 29.7193 3.52035 32.2862 3.87167C33.9344 4.09652 35.5933 4.51017 36.9816 5.41419C40.0397 7.40302 41.161 11.3769 40.9791 14.9814C40.6293 21.8726 36.0907 28.4003 29.6949 31.2085C32.3349 29.8055 35.2656 28.942 38.2515 28.6856C41.2496 28.4301 44.706 29.017 46.3479 31.5023C47.57 33.3512 47.4209 35.8687 46.3581 37.812C45.2949 39.7551 43.4442 41.18 41.4475 42.1827C38.0238 43.9029 33.968 44.4971 30.2638 43.4986C23.6049 41.7015 16.6318 34.2907 16.1723 27.3341C15.7119 20.3481 17.6588 8.17335 24.6803 4.74461Z" fill="#FCFC5B"/>
<path d="M11.9676 26.1381C10.5202 27.8346 11.9063 30.3659 13.2836 32.1146C15.9191 35.4676 18.5546 38.8206 21.1904 42.1737C22.7854 44.2035 24.4336 46.2777 26.6642 47.6035C27.477 48.0872 28.4764 48.4674 29.3595 48.1241C30.3115 47.7548 30.7803 46.632 30.7041 45.6257C30.628 44.6193 30.1281 43.7002 29.6391 42.8142C28.1923 40.1884 18.2127 18.8228 11.9676 26.1381Z" fill="#BF946D"/>
</g>
<defs>
<filter id="filter0_d" x="5.91962" y="3.69" width="42.291" height="46.5662" filterUnits="userSpaceOnUse" color-interpolation-filters="sRGB">
<feFlood flood-opacity="0" result="BackgroundImageFix"/>
<feColorMatrix in="SourceAlpha" type="matrix" values="0 0 0 0 0 0 0 0 0 0 0 0 0 0 0 0 0 0 127 0"/>
<feOffset dy="1"/>
<feGaussianBlur stdDeviation="0.5"/>
<feColorMatrix type="matrix" values="0 0 0 0 0 0 0 0 0 0 0 0 0 0 0 0 0 0 0.25 0"/>
<feBlend mode="normal" in2="BackgroundImageFix" result="effect1_dropShadow"/>
<feBlend mode="normal" in="SourceGraphic" in2="effect1_dropShadow" result="shape"/>
</filter>
</defs>
</svg>
