<svg width="26" height="24" viewBox="0 0 26 24" fill="none" xmlns="http://www.w3.org/2000/svg">
<path d="M8.69856 5.42004C10.0957 5.42004 11.2282 4.28746 11.2282 2.89036C11.2282 1.49326 10.0957 0.360687 8.69856 0.360687C7.30146 0.360687 6.16888 1.49326 6.16888 2.89036C6.16888 4.28746 7.30146 5.42004 8.69856 5.42004Z" fill="#684D3C"/>
<path d="M17.4987 18.1232L16.5473 17.359C16.3322 17.1861 16.0175 17.2202 15.8446 17.4356C15.6719 17.6506 15.706 17.9653 15.9211 18.138L16.8918 18.9177V21.0381C16.8918 21.0484 16.0406 22.715 16.0406 22.715C15.9131 22.9599 16.0085 23.2616 16.2531 23.3891C16.3269 23.4272 16.4057 23.4455 16.4833 23.4455C16.6637 23.4455 16.8379 23.3477 16.9272 23.1765L17.7873 21.5242L18.7497 23.1956C18.8423 23.3562 19.0102 23.446 19.1833 23.446C19.2679 23.446 19.3537 23.4245 19.4323 23.379C19.6715 23.2413 19.7538 22.9356 19.616 22.6967L18.776 21.2381H21.8864V22.9459C21.8864 23.2222 22.1103 23.4458 22.3863 23.4458C22.6624 23.4458 22.8858 23.2217 22.8858 22.9459V21.0559C22.8865 21.0501 22.8895 21.0446 22.8895 21.0388V19.4583L20.5619 18.1239H17.4987V18.1232Z" fill="#684D3C"/>
<path d="M24.1831 17.107C23.8741 16.8159 23.7702 16.4754 23.4236 16.2287C23.3632 16.186 23.3019 16.1421 23.2377 16.1057C23.199 16.0841 23.1867 16.0585 23.191 16.0169C23.2058 15.8736 23.2201 15.7298 23.2317 15.5867C23.2522 15.33 23.1777 15.0956 22.9717 14.944C22.8889 14.8828 22.48 14.6848 22.3021 15.3626C22.2635 15.5097 22.2108 15.6562 22.1402 15.791C21.8835 16.2846 21.557 16.7361 21.2451 17.1959C21.1025 17.4054 20.9597 17.615 20.8179 17.824L23.0033 19.0685C23.0033 19.0685 23.4247 18.608 23.4839 18.6341C23.5657 18.6705 23.648 18.7056 23.7303 18.7415C23.9707 18.8464 24.2217 18.8949 24.4847 18.8796C24.9314 18.8535 25.3969 18.616 25.4396 18.0803C25.4785 17.5889 24.2872 17.2052 24.1831 17.107Z" fill="#684D3C"/>
<path d="M16.0397 13.244L20.165 17.7113L20.5535 17.3527L16.4264 12.8834C15.1651 11.5425 14.0559 10.4608 13.2586 10.7981C13.2237 10.8129 13.1905 10.8303 13.1584 10.8501C11.2745 10.5911 10.8757 9.71474 10.2724 8.38892C9.94513 7.66942 9.57396 6.8538 8.91017 6.1343C8.9054 6.12903 8.89938 6.12552 8.89436 6.12025C8.66247 5.86402 8.37939 5.65697 8.09053 5.51694C8.09053 5.51694 7.8466 5.38343 7.56803 5.32997C7.30177 5.27878 6.84075 5.29233 6.54864 5.32797C3.46333 5.77919 2.09435 8.05866 0.774551 10.2701L0.639534 10.4965C0.36122 10.9618 0.5128 11.5648 0.97833 11.8434C1.13618 11.9377 1.30985 11.9827 1.4815 11.9827C1.81553 11.9827 2.14128 11.8123 2.32523 11.5046L2.46125 11.2767C3.14211 10.1356 3.74742 9.12674 4.52063 8.39746L3.69146 12.2675C3.57551 12.8086 3.72709 13.3077 4.02749 13.713L3.77352 17.5876L2.15885 21.7621C1.90989 22.406 2.22987 23.1301 2.87383 23.3788C3.0219 23.4362 3.17448 23.4633 3.3243 23.4633C3.82572 23.4633 4.29853 23.1594 4.49026 22.6638L6.1737 18.3106C6.21938 18.1924 6.24698 18.0679 6.25526 17.9415L6.40308 15.6858L7.88826 18.0333L9.10416 22.5087C9.25323 23.0681 9.75866 23.437 10.311 23.4365C10.4174 23.4365 10.5258 23.4227 10.634 23.3943C11.3011 23.2164 11.6976 22.5315 11.5196 21.8645L10.2546 17.2041C10.2219 17.0822 10.171 16.9652 10.103 16.8581L8.08075 13.6623C8.14549 13.5333 8.19744 13.3938 8.23057 13.2392L8.90741 10.0809C9.50821 11.2165 10.4365 12.3516 12.5646 12.7393C12.5641 12.9002 12.5682 13.0711 12.5764 13.2525L13.1047 13.2279C13.0974 13.0721 13.0947 12.9318 13.0942 12.8C13.5504 12.7702 13.9389 12.4271 14.0031 11.9563C14.0335 11.735 13.9843 11.5227 13.8819 11.342C14.5274 11.6348 15.5107 12.6816 16.0397 13.244Z" fill="#684D3C"/>
</svg>
