<svg width="428" height="226" viewBox="0 0 428 226" fill="none" xmlns="http://www.w3.org/2000/svg">
<g filter="url(#filter0_d)">
<path d="M427 211.39C427 218.031 346.272 223.418 246.688 223.418C147.109 223.418 66.3821 218.031 66.3821 211.39C66.3821 204.75 147.109 199.367 246.688 199.367C346.272 199.367 427 204.75 427 211.39Z" fill="#B392DC"/>
<path d="M129.332 34.1829C149.781 42.6376 182.691 55.5422 203.139 63.9923C209.216 66.5043 203.01 64.6903 207.545 69.4986C210.726 72.874 212.87 77.1449 214.582 81.5169C216.087 85.3607 217.299 89.3975 217.359 93.5628C217.423 98.2195 216.05 102.798 214.508 107.216C210.235 119.432 204.094 131.666 193.706 139.188C192.463 140.088 173.052 147.069 172.129 145.88C162.444 133.462 159.456 131.969 147.408 123.482C141.904 119.606 133.44 112.456 127.455 109.374C119.244 105.14 111.574 99.859 104.671 93.6822C99.5702 89.1219 94.8164 83.9693 91.8857 77.7006C85.1435 63.2896 86.1827 28.9613 107.576 28.6215C115.269 28.5021 122.369 31.3035 129.332 34.1829Z" fill="#FFF9E9"/>
<path d="M132.288 85.6591C131.453 84.5937 130.443 83.5283 129.117 83.2849C128.277 83.1287 127.414 83.3263 126.615 83.6202C122.31 85.2091 119.514 89.5673 118.546 94.0541C117.949 96.8187 117.495 100.63 118.082 103.987C121.116 105.953 124.242 107.776 127.45 109.429C131.591 111.56 136.906 115.634 141.615 119.225C141.721 119.014 141.803 118.784 141.872 118.564C143.13 114.513 142.051 110.146 140.94 106.049C138.999 98.8715 136.869 91.5145 132.288 85.6591Z" fill="#F2ECDF"/>
<path d="M344.881 141.834C364.329 132.566 383.942 122.137 397.803 105.641C399.993 103.032 402.145 99.7303 401.218 96.4514C399.782 91.3813 405.62 85.6409 400.429 86.5593C387.044 88.9336 368.418 90.8119 359.055 88.7453C350.472 86.8486 341.503 83.9187 333.117 86.5455C329.023 87.8268 325.42 90.3664 322.308 93.3148C310.741 104.268 305.779 122.775 313.178 136.883C320.357 150.573 333.209 147.395 344.881 141.834Z" fill="#DDD8CE"/>
<path d="M164.725 203.321C164.331 205.618 164.583 208.116 165.914 210.026C167.245 211.937 169.807 213.076 172.01 212.318C171.464 213.705 173.185 214.876 174.621 215.28C180.253 216.86 186.436 216.401 191.774 214.003C193.812 213.09 195.758 211.877 197.227 210.192C201.353 205.457 200.513 197.489 195.942 193.177C190.934 188.447 184.017 188.75 178.101 191.253C172.12 193.788 165.983 195.987 164.725 203.321Z" fill="#DDD8CE"/>
<path d="M419.436 113.82C421.295 112.415 422.819 110.417 423.154 108.111C423.489 105.806 422.401 103.225 420.276 102.274C421.625 101.636 421.166 99.6017 420.395 98.325C417.366 93.3147 412.542 89.4203 407.011 87.5144C404.9 86.7842 402.65 86.3388 400.429 86.5593C394.177 87.193 389.344 93.581 389.73 99.8542C390.152 106.734 395.403 111.243 401.43 113.466C407.525 115.712 413.51 118.307 419.436 113.82Z" fill="#DDD8CE"/>
<path d="M410.412 104.107C414.001 106.279 418.807 106.403 422.419 104.268C422.465 104.24 421.364 102.844 421.217 102.715C420.693 102.247 420.496 102.141 419.904 102.412C418.894 102.885 417.921 103.39 416.856 103.739C414.786 104.419 412.542 104.681 410.412 104.107Z" fill="#BCB8B1"/>
<path d="M200.825 146.297C198.999 151.79 198.255 157.572 196.919 163.202C194.253 174.43 189.176 185.076 182.126 194.21C180.804 195.923 179.395 197.618 178.569 199.615C177.743 201.618 177.582 204.029 178.734 205.861C179.537 207.133 180.873 207.983 182.25 208.575C184.986 209.755 188.07 210.1 190.994 209.549C194.23 208.938 197.163 207.294 199.99 205.608C218.901 194.357 236.32 180.065 248.928 162.022C252.077 157.517 254.978 152.635 255.836 147.202C256.699 141.769 255.138 135.661 250.75 132.35C248.047 130.316 244.6 129.535 241.226 129.246C231.872 128.451 223.839 132.001 214.802 133.154C211.837 133.53 209.381 133.324 207.017 135.445C203.983 138.173 202.088 142.504 200.825 146.297Z" fill="#DDD8CE"/>
<g filter="url(#filter1_d)">
<path d="M100.8 4.27704C105.318 2.80747 110.169 2.86721 114.92 2.95906C119.671 3.05091 124.518 3.14731 129.057 1.75122C130.223 3.27131 129.837 5.55836 128.69 7.09223C127.542 8.63069 125.798 9.58587 124.114 10.4998C119.579 12.9475 115.049 15.3999 110.514 17.8476C108.623 18.8717 106.713 19.905 104.657 20.5388C101.998 21.3562 99.1338 21.4849 96.4147 20.9108C83.8741 18.2518 93.7089 6.58703 100.8 4.27704Z" fill="#EDB68A"/>
</g>
<g filter="url(#filter2_d)">
<path d="M85.6371 22.6788C88.9979 15.2759 93.5323 8.01982 100.271 5.09905C101.572 4.53418 103.041 4.14838 104.367 4.74081C106.649 5.75573 107.466 9.0026 107.957 11.781C108.797 16.5296 109.641 21.2781 110.481 26.0266C110.72 27.3676 110.958 28.75 110.747 30.0772C110.477 31.7947 109.49 33.2091 108.393 34.3618C105.832 37.0484 102.586 38.6741 99.3482 40.0978C91.3424 43.6202 82.8992 46.3618 74.3564 47.7396C73.6578 44.1804 78.0182 39.7396 79.4407 36.8647C81.7127 32.2723 83.5106 27.3677 85.6371 22.6788Z" fill="#BF946D"/>
</g>
<path d="M161.246 129.181C164.78 135.918 168.728 142.545 174.13 148.047C186.996 161.14 206.654 166.371 225.625 167.712C254.955 169.787 284.991 163.762 311.108 150.568C324.061 144.024 336.637 135.087 342.279 122.284C345.556 114.848 346.24 106.642 345.973 98.6327C345.749 91.8589 344.844 84.9978 341.943 78.8394C335.311 64.7269 319.04 56.4789 302.782 54.4766C286.52 52.4743 270.028 55.6891 253.904 58.8716C237.779 62.0587 221.273 65.2459 205.025 63.1931C194.243 61.8291 183.962 58.2011 173.272 56.3412C166.364 55.138 152.557 53.1035 146.604 58.0817C141.564 62.2975 143.685 71.4318 144.272 76.9105C146.223 95.2113 152.677 112.837 161.246 129.181Z" fill="#FFF9E9"/>
<path d="M340.911 111.023C335.27 123.827 322.693 132.764 309.741 139.308C283.624 152.502 253.582 158.527 224.257 156.451C205.282 155.11 168.806 143.198 174.213 148.695C187.079 161.792 206.733 167.023 225.708 168.364C255.033 170.435 285.07 164.415 311.191 151.22C324.144 144.676 336.72 135.74 342.361 122.936C345.639 115.501 344.188 103.588 340.911 111.023Z" fill="#F2ECDF"/>
<path d="M118.394 182.137C117.334 184.212 116.834 186.674 117.536 188.897C118.238 191.115 120.341 192.965 122.668 192.897C121.736 194.058 123.03 195.689 124.283 196.502C129.19 199.689 135.226 201.094 141.037 200.401C143.254 200.134 145.471 199.556 147.375 198.384C152.727 195.092 154.293 187.239 151.217 181.755C147.844 175.749 141.147 173.976 134.758 174.605C128.295 175.243 121.777 175.514 118.394 182.137Z" fill="#FFF9E9"/>
<path d="M130.746 186.945C126.574 186.554 122.19 188.538 119.872 192.033C119.84 192.079 121.442 192.855 121.63 192.91C122.305 193.103 122.53 193.112 122.939 192.607C123.645 191.744 124.302 190.867 125.11 190.086C126.675 188.57 128.584 187.358 130.746 186.945Z" fill="#F2E2D3"/>
<path d="M404.064 165.145C406.07 163.96 407.805 162.146 408.401 159.891C408.994 157.641 408.199 154.954 406.198 153.765C407.607 153.282 407.383 151.211 406.758 149.856C404.316 144.538 399.961 140.121 394.678 137.604C392.658 136.644 390.478 135.946 388.242 135.918C381.963 135.84 376.442 141.645 376.12 147.923C375.762 154.802 380.476 159.882 386.214 162.766C392.015 165.682 397.67 168.938 404.064 165.145Z" fill="#FFF9E9"/>
<path d="M396.192 154.476C399.511 157.039 404.275 157.705 408.103 155.992C408.149 155.969 407.213 154.453 407.084 154.311C406.616 153.788 406.432 153.659 405.813 153.866C404.752 154.219 403.733 154.61 402.632 154.839C400.502 155.28 398.239 155.285 396.192 154.476Z" fill="#F2E2D3"/>
<path d="M128.46 106.688C117.848 123.762 101.077 137.609 82.1187 144.952C69.8965 149.687 56.6527 151.758 44.3607 149.719C32.0684 147.675 20.8294 141.324 14.3332 131.455C11.2447 126.761 -7.49429 106.945 5.82806 87.3768C8.04592 84.1208 10.1128 80.6444 12.981 77.7879C31.1761 59.6846 58.0934 54.1553 80.351 41.2415C96.5311 31.85 114.429 17.7604 131.067 30.1094C143.552 39.3723 142.712 63.4228 139.871 77.843C137.902 87.8452 134.046 97.6959 128.46 106.688Z" fill="#FFF9E9"/>
<path d="M5.79361 86.9313C7.86782 83.9141 9.8135 80.7085 12.388 77.9898C20.8051 77.9255 31.5392 81.6867 36.0754 86.5914C38.7821 89.5168 40.0164 94.1368 38.0165 97.5857C34.7113 103.289 25.8715 102.173 20.7417 106.311C18.7217 107.937 17.4273 110.27 15.8346 112.318C14.2428 114.371 12.0754 116.268 9.48347 116.369C7.27386 116.456 5.24648 115.211 3.4922 113.861C0.333844 105.981 -0.721842 96.41 5.79361 86.9313Z" fill="#231F20"/>
<g filter="url(#filter3_d)">
<path d="M144.465 6.24722C145.558 5.31037 146.769 4.37807 148.197 4.23571C151.424 3.90505 161.315 8.92915 162.288 12.0198C165.694 22.8579 158.203 33.2276 155.366 44.2265C154.251 48.5617 152.424 53.0715 148.661 55.5008C145.103 57.7971 140.367 57.7328 136.456 56.0979C132.545 54.463 129.364 51.4458 126.707 48.1438C121.277 41.3746 121.359 35.6433 125.977 28.6995C131.352 20.6169 137.048 12.5985 144.465 6.24722Z" fill="#BF946D"/>
</g>
<g filter="url(#filter4_d)">
<path d="M137.865 10.7615C145.062 4.28159 154.338 -1.39469 163.867 0.304504C169.283 1.26891 174.002 4.5158 178.238 8.029C179.638 9.18628 181.043 10.4354 181.823 12.0795C182.603 13.719 182.613 15.8636 181.373 17.1954C180.221 18.4354 178.362 18.665 176.673 18.6925C173.176 18.7568 169.605 19.0507 166.19 18.2884C155.091 15.8177 139.169 20.0014 130.737 21.7695C130.737 21.7695 134.643 13.6639 137.865 10.7615Z" fill="#EDB68A"/>
</g>
<g filter="url(#filter5_d)">
<path d="M101.174 42.1093C103.582 43.8039 105.07 46.4813 106.809 48.8602C109.49 52.5433 112.932 55.6661 116.847 57.9807C119.051 59.2849 121.479 60.3963 123.071 62.3986C124.82 64.5937 125.302 67.5834 125.027 70.3756C124.361 77.177 119.546 83.1058 113.566 86.4077C107.585 89.7143 100.577 90.7016 93.7448 90.6787C90.8922 90.6695 88.0119 90.4903 85.2717 89.7004C83.0208 89.0483 80.9058 87.9967 78.8724 86.8348C74.529 84.3458 70.4958 81.3193 66.8954 77.8429C64.8231 75.8406 62.8507 73.6225 61.824 70.9267C60.7972 68.2356 60.8739 64.9704 62.6534 62.7017C64.147 60.8005 66.5379 59.8911 68.7851 59.0002C74.2669 56.8188 79.5917 54.247 84.7045 51.3079C88.2979 49.2367 90.749 47.0645 92.9856 43.634C94.9139 40.6811 97.767 39.7167 101.174 42.1093Z" fill="#BF946D"/>
</g>
<g filter="url(#filter6_d)">
<path d="M86.9086 77.4434C91.9617 79.8223 98.8802 75.7442 102.362 68.3321C105.845 60.9245 104.569 52.9888 99.5182 50.6145C94.4656 48.2356 87.5467 52.3137 84.0647 59.7259C80.5828 67.1334 81.856 75.0692 86.9086 77.4434Z" fill="white"/>
</g>
<g filter="url(#filter7_d)">
<path d="M84.6757 58.9084C83.4538 63.3263 85.2223 67.6707 88.6262 68.6122C92.0302 69.5582 95.7802 66.7385 97.002 62.3206C98.2239 57.8981 96.4554 53.5537 93.0514 52.6122C89.6475 51.6708 85.8975 54.4859 84.6757 58.9084Z" fill="#231F20"/>
</g>
<path d="M29.8436 97.3422C29.4442 97.3422 29.0477 97.2642 28.6749 97.1035C26.514 96.162 26.2629 93.1539 24.633 91.4502C22.1591 88.8646 17.7008 90.1689 14.4722 88.6212C13.6245 88.2171 12.8226 87.5282 12.6583 86.6005C12.1717 83.8497 14.2106 83.0002 16.8852 83.0002C20.4979 83.0002 25.271 84.5478 26.5553 85.0575C28.837 85.953 31.115 87.1609 32.5356 89.1631C33.9571 91.1654 34.2651 94.1275 32.6742 95.9967C31.9765 96.8141 30.9006 97.3422 29.8436 97.3422Z" fill="#635E5A"/>
<path d="M41.1638 148.86C41.1638 148.86 53.0628 147.689 64.7851 135.556C76.5069 123.423 77.195 116.626 78.6463 116.552C80.0981 116.479 76.6777 127.28 70.3256 135.68C63.9736 144.075 53.3359 150.265 53.3359 150.265C53.3359 150.265 49.5208 150.118 47.6242 149.935C43.6667 149.549 41.1638 148.86 41.1638 148.86Z" fill="#231F20"/>
<path d="M84.0354 142.316C86.6333 146.991 90.5623 151.083 94.7814 154.917C97.9604 157.811 101.413 160.708 102.688 164.456C103.959 168.203 102.261 173.103 97.4918 175.055C94.982 176.079 92.0403 176.12 89.5002 175.546C86.9596 174.968 84.7638 173.829 82.736 172.584C74.52 167.546 68.5204 160.621 64.5726 153.021C62.3704 148.782 60.516 143.602 63.8979 139.386C65.8486 136.952 69.6592 134.734 69.6592 134.734C69.6592 134.734 72.024 129.158 73.8902 125.788C75.2401 123.349 78.7033 117.948 78.2268 120.672C76.5855 130.059 82.6768 139.868 84.0354 142.316Z" fill="#F45C4D"/>
<path d="M84.5595 152.24C83.1091 152.208 81.9983 151.409 81.0738 150.614C77.7539 147.762 75.1776 144.387 73.5119 140.713C72.5567 138.605 71.3 134.922 72.6618 132.584C73.2471 131.579 73.9291 131.184 74.5786 131.184C75.9175 131.184 77.1196 132.855 77.0595 134.288C76.8736 138.715 78.3493 143.046 81.2648 146.628C82.6886 148.378 84.5067 150.091 84.5595 152.24Z" fill="#F78A7A"/>
<path d="M93.6254 161.728C93.1196 161.728 92.6015 161.507 92.1916 161.273C90.609 160.382 89.2228 159.294 88.0918 158.054C86.7029 156.538 87.4524 154.66 89.1012 154.66C89.6717 154.66 90.3492 154.885 91.0831 155.423C92.6786 156.603 93.9068 158.072 94.661 159.698C94.9497 160.323 95.058 161.2 94.269 161.586C94.0634 161.687 93.8453 161.728 93.6254 161.728Z" fill="#F78A7A"/>
<path d="M356.93 44.8602C368.698 39.0875 379.558 31.6202 391.217 25.6363C393.328 24.5525 396.688 23.9876 397.39 26.2517C397.831 27.6661 396.711 29.0485 395.669 30.1047C379.434 46.6374 362.3 62.4904 342.816 75.0323C330.909 82.697 316.625 89.2779 302.975 85.5076C285.914 80.7912 291.711 63.1058 305.472 58.9405C313.009 56.658 321.353 56.6993 329.046 54.8624C338.671 52.5662 348.044 49.2138 356.93 44.8602Z" fill="#FFF9E9"/>
<path d="M230.486 158.444C232.088 155.831 233.157 152.75 233.102 149.498C233.042 146.247 231.762 142.835 229.361 140.612C225.919 137.434 220.75 137.301 217.092 139.491C213.434 141.682 211.139 145.783 209.941 150.141C208.335 155.987 209.441 164.336 216.101 166.899C221.558 168.998 227.98 162.532 230.486 158.444Z" fill="#F2ECDF"/>
<path d="M169.834 138.463C166.456 143.161 164.023 148.46 161.072 153.439C155.183 163.358 147.169 172.01 137.718 178.628C135.946 179.868 134.101 181.067 132.715 182.729C131.329 184.392 130.457 186.646 131.012 188.741C131.402 190.192 132.421 191.4 133.56 192.378C135.818 194.32 138.664 195.565 141.62 195.909C144.888 196.295 148.179 195.597 151.378 194.835C172.781 189.728 193.66 181.278 211.07 167.808C215.417 164.447 219.64 160.649 222.082 155.721C224.519 150.793 225.698 139.083 222.49 134.614C220.516 131.864 216.61 135.505 213.48 134.229C204.782 130.679 196.056 131.671 187.092 130.082C184.145 129.558 181.864 128.626 178.977 129.948C175.264 131.648 172.166 135.216 169.834 138.463Z" fill="#FFF9E9"/>
<path d="M292.409 134.826C293.396 140.552 296.255 146.665 301.763 148.511C304.458 149.411 307.528 149.108 309.998 147.698C312.462 146.284 314.28 143.79 314.872 141.007C315.809 136.584 313.711 132.075 311.131 128.359C309.429 125.907 307.487 123.615 305.348 121.53C303.563 119.795 301.502 118.132 299.037 117.774C289.976 116.456 291.532 129.756 292.409 134.826Z" fill="#F2ECDF"/>
<path d="M301.079 136.194C310.443 144.396 323.198 147.395 335.504 149.273C351.826 151.762 368.373 152.764 384.878 152.263C389.454 152.125 395.123 151.055 396.376 146.646C397.179 143.808 395.568 140.736 393.25 138.908C390.937 137.08 388.031 136.213 385.227 135.289C374.284 131.68 363.351 126.279 356.636 116.911C352.601 111.285 345.974 98.6328 345.166 89.6776C344.541 82.7798 338.923 86.5731 332.222 84.851C324.038 82.7431 316.148 87.2712 309.649 91.758C305.013 94.9589 298.885 98.0266 294.869 101.99C285.386 111.345 292.546 128.791 301.079 136.194Z" fill="#FFF9E9"/>
<path d="M248.327 82.8027C250.066 85.3331 253.412 86.022 256.148 87.4135C259.701 89.2229 262.473 92.5156 263.643 96.3273C264.933 100.525 264.424 105.37 266.934 108.97C268.22 110.807 270.161 112.088 272.19 113.048C279.846 116.676 289.352 116.052 296.466 111.459C303.076 107.198 307.735 99.8129 315.225 97.4111C317.355 96.7268 319.659 96.4743 321.582 95.3308C326.668 92.3089 326.466 84.3136 322.698 79.7441C318.934 75.1793 312.972 73.1769 307.331 71.3951C299.821 69.0162 292.202 67.0415 284.679 64.7269C279.621 63.1747 274.361 60.5708 268.991 60.4238C260.265 60.1804 240.974 72.1253 248.327 82.8027Z" fill="#BF946D"/>
</g>
<defs>
<filter id="filter0_d" x="0.0934196" y="-7.62939e-06" width="427.813" height="225.231" filterUnits="userSpaceOnUse" color-interpolation-filters="sRGB">
<feFlood flood-opacity="0" result="BackgroundImageFix"/>
<feColorMatrix in="SourceAlpha" type="matrix" values="0 0 0 0 0 0 0 0 0 0 0 0 0 0 0 0 0 0 127 0"/>
<feOffset dy="0.90658"/>
<feGaussianBlur stdDeviation="0.45329"/>
<feColorMatrix type="matrix" values="0 0 0 0 0 0 0 0 0 0 0 0 0 0 0 0 0 0 0.25 0"/>
<feBlend mode="normal" in2="BackgroundImageFix" result="effect1_dropShadow"/>
<feBlend mode="normal" in="SourceGraphic" in2="effect1_dropShadow" result="shape"/>
</filter>
<filter id="filter1_d" x="89.4864" y="1.75122" width="41.1837" height="21.3254" filterUnits="userSpaceOnUse" color-interpolation-filters="sRGB">
<feFlood flood-opacity="0" result="BackgroundImageFix"/>
<feColorMatrix in="SourceAlpha" type="matrix" values="0 0 0 0 0 0 0 0 0 0 0 0 0 0 0 0 0 0 127 0"/>
<feOffset dy="0.90658"/>
<feGaussianBlur stdDeviation="0.45329"/>
<feColorMatrix type="matrix" values="0 0 0 0 0 0 0 0 0 0 0 0 0 0 0 0 0 0 0.25 0"/>
<feBlend mode="normal" in2="BackgroundImageFix" result="effect1_dropShadow"/>
<feBlend mode="normal" in="SourceGraphic" in2="effect1_dropShadow" result="shape"/>
</filter>
<filter id="filter2_d" x="73.3745" y="4.44396" width="38.3609" height="45.1088" filterUnits="userSpaceOnUse" color-interpolation-filters="sRGB">
<feFlood flood-opacity="0" result="BackgroundImageFix"/>
<feColorMatrix in="SourceAlpha" type="matrix" values="0 0 0 0 0 0 0 0 0 0 0 0 0 0 0 0 0 0 127 0"/>
<feOffset dy="0.90658"/>
<feGaussianBlur stdDeviation="0.45329"/>
<feColorMatrix type="matrix" values="0 0 0 0 0 0 0 0 0 0 0 0 0 0 0 0 0 0 0.25 0"/>
<feBlend mode="normal" in2="BackgroundImageFix" result="effect1_dropShadow"/>
<feBlend mode="normal" in="SourceGraphic" in2="effect1_dropShadow" result="shape"/>
</filter>
<filter id="filter3_d" x="121.664" y="4.22017" width="42.4018" height="54.8733" filterUnits="userSpaceOnUse" color-interpolation-filters="sRGB">
<feFlood flood-opacity="0" result="BackgroundImageFix"/>
<feColorMatrix in="SourceAlpha" type="matrix" values="0 0 0 0 0 0 0 0 0 0 0 0 0 0 0 0 0 0 127 0"/>
<feOffset dy="0.90658"/>
<feGaussianBlur stdDeviation="0.45329"/>
<feColorMatrix type="matrix" values="0 0 0 0 0 0 0 0 0 0 0 0 0 0 0 0 0 0 0.25 0"/>
<feBlend mode="normal" in2="BackgroundImageFix" result="effect1_dropShadow"/>
<feBlend mode="normal" in="SourceGraphic" in2="effect1_dropShadow" result="shape"/>
</filter>
<filter id="filter4_d" x="129.83" y="-7.62939e-06" width="53.4409" height="23.5826" filterUnits="userSpaceOnUse" color-interpolation-filters="sRGB">
<feFlood flood-opacity="0" result="BackgroundImageFix"/>
<feColorMatrix in="SourceAlpha" type="matrix" values="0 0 0 0 0 0 0 0 0 0 0 0 0 0 0 0 0 0 127 0"/>
<feOffset dy="0.90658"/>
<feGaussianBlur stdDeviation="0.45329"/>
<feColorMatrix type="matrix" values="0 0 0 0 0 0 0 0 0 0 0 0 0 0 0 0 0 0 0.25 0"/>
<feBlend mode="normal" in2="BackgroundImageFix" result="effect1_dropShadow"/>
<feBlend mode="normal" in="SourceGraphic" in2="effect1_dropShadow" result="shape"/>
</filter>
<filter id="filter5_d" x="60.252" y="40.7605" width="65.7536" height="51.7317" filterUnits="userSpaceOnUse" color-interpolation-filters="sRGB">
<feFlood flood-opacity="0" result="BackgroundImageFix"/>
<feColorMatrix in="SourceAlpha" type="matrix" values="0 0 0 0 0 0 0 0 0 0 0 0 0 0 0 0 0 0 127 0"/>
<feOffset dy="0.90658"/>
<feGaussianBlur stdDeviation="0.45329"/>
<feColorMatrix type="matrix" values="0 0 0 0 0 0 0 0 0 0 0 0 0 0 0 0 0 0 0.25 0"/>
<feBlend mode="normal" in2="BackgroundImageFix" result="effect1_dropShadow"/>
<feBlend mode="normal" in="SourceGraphic" in2="effect1_dropShadow" result="shape"/>
</filter>
<filter id="filter6_d" x="81.1951" y="49.9362" width="24.0368" height="29.9986" filterUnits="userSpaceOnUse" color-interpolation-filters="sRGB">
<feFlood flood-opacity="0" result="BackgroundImageFix"/>
<feColorMatrix in="SourceAlpha" type="matrix" values="0 0 0 0 0 0 0 0 0 0 0 0 0 0 0 0 0 0 127 0"/>
<feOffset dy="0.90658"/>
<feGaussianBlur stdDeviation="0.45329"/>
<feColorMatrix type="matrix" values="0 0 0 0 0 0 0 0 0 0 0 0 0 0 0 0 0 0 0.25 0"/>
<feBlend mode="normal" in2="BackgroundImageFix" result="effect1_dropShadow"/>
<feBlend mode="normal" in="SourceGraphic" in2="effect1_dropShadow" result="shape"/>
</filter>
<filter id="filter7_d" x="83.3822" y="52.4308" width="14.9132" height="18.1773" filterUnits="userSpaceOnUse" color-interpolation-filters="sRGB">
<feFlood flood-opacity="0" result="BackgroundImageFix"/>
<feColorMatrix in="SourceAlpha" type="matrix" values="0 0 0 0 0 0 0 0 0 0 0 0 0 0 0 0 0 0 127 0"/>
<feOffset dy="0.90658"/>
<feGaussianBlur stdDeviation="0.45329"/>
<feColorMatrix type="matrix" values="0 0 0 0 0 0 0 0 0 0 0 0 0 0 0 0 0 0 0.25 0"/>
<feBlend mode="normal" in2="BackgroundImageFix" result="effect1_dropShadow"/>
<feBlend mode="normal" in="SourceGraphic" in2="effect1_dropShadow" result="shape"/>
</filter>
</defs>
</svg>
